<svg width="800" height="600" viewBox="0 0 800 600" fill="none" xmlns="http://www.w3.org/2000/svg">
<rect width="800" height="600" fill="#f0fdf4"/>
<rect x="50" y="50" width="700" height="500" rx="12" fill="#dcfce7" stroke="#bbf7d0" stroke-width="2"/>
<circle cx="400" cy="200" r="80" fill="#22c55e"/>
<path d="M400 120 Q360 140 360 180 Q360 220 400 200 Q440 220 440 180 Q440 140 400 120" fill="#16a34a"/>
<rect x="150" y="350" width="100" height="60" rx="8" fill="#059669"/>
<rect x="350" y="350" width="100" height="60" rx="8" fill="#059669"/>
<rect x="550" y="350" width="100" height="60" rx="8" fill="#059669"/>
<circle cx="200" cy="300" r="15" fill="#84cc16"/>
<circle cx="400" cy="300" r="15" fill="#84cc16"/>
<circle cx="600" cy="300" r="15" fill="#84cc16"/>
<path d="M200 315 L200 350" stroke="#16a34a" stroke-width="3"/>
<path d="M400 315 L400 350" stroke="#16a34a" stroke-width="3"/>
<path d="M600 315 L600 350" stroke="#16a34a" stroke-width="3"/>
<text x="200" y="440" text-anchor="middle" fill="#14532d" font-family="Arial, sans-serif" font-size="14" font-weight="500">Renewable Energy</text>
<text x="400" y="440" text-anchor="middle" fill="#14532d" font-family="Arial, sans-serif" font-size="14" font-weight="500">Waste Reduction</text>
<text x="600" y="440" text-anchor="middle" fill="#14532d" font-family="Arial, sans-serif" font-size="14" font-weight="500">Green Materials</text>
<text x="400" y="500" text-anchor="middle" fill="#14532d" font-family="Arial, sans-serif" font-size="24" font-weight="600">Sustainable Manufacturing</text>
</svg>
